<svg width="182" height="180" viewBox="0 0 182 180" fill="none" xmlns="http://www.w3.org/2000/svg">
<rect width="182" height="180" fill="#E5E5E5"/>
<rect x="2" width="180" height="180" fill="#1BD4ED"/>
<path d="M122.2 67.8C119.8 70.2 116.4 75.6667 112 84.2C107.6 92.6 104.933 98.9333 104 103.2C103.2 107.333 102.8 110.733 102.8 113.4C102.8 115.933 103.8 117.2 105.8 117.2C108.333 117.2 111.467 114.867 115.2 110.2C120.667 103.4 126.067 94.5333 131.4 83.6C131.933 82.4 132.533 81.7333 133.2 81.6C134.267 81.2 134.8 81.6 134.8 82.8C134.8 83.4667 134.6 84.2667 134.2 85.2C121.933 110 111.6 122.4 103.2 122.4C99.3333 122.4 96.2 120.533 93.8 116.8C92.6 114.8 92 112.133 92 108.8C92 105.467 92.6667 101.4 94 96.6C83.3333 113.8 74.1333 122.4 66.4 122.4C64.2667 122.4 62.3333 121.733 60.6 120.4C56.6 117.6 54.6 112.8 54.6 106C54.6 92.9333 60.2667 79.6667 71.6 66.2C78 58.7333 85.8667 53.8667 95.2 51.6C97.7333 50.9333 100.133 50.6 102.4 50.6C108.533 50.6 113.733 52.7333 118 57C119.333 58.4667 119.733 59.8667 119.2 61.2C118.667 62.5333 117.533 63.0667 115.8 62.8C114.333 58 111.133 55.6 106.2 55.6C100.467 55.6 93.4 60.1333 85 69.2C80.2 74.5333 75.7333 80.8 71.6 88C66.4 96.6667 63.8 103.6 63.8 108.8C63.8 114 65.4667 116.6 68.8 116.6C76.8 116.6 87.2667 104.333 100.2 79.8C102.733 74.8667 104.867 71.5333 106.6 69.8C108.333 67.9333 110.533 67 113.2 67C113.733 67 115.067 67.2 117.2 67.6C119.467 68 121.133 68.0667 122.2 67.8Z" fill="black"/>
<path d="M65.5 138L88.4497 178.5H42.5503L65.5 138Z" fill="#F707DF"/>
<path d="M157.5 138L180.45 178.5H134.55L157.5 138Z" fill="#F2F707"/>
<path d="M110.5 138L133.45 178.5H87.5503L110.5 138Z" fill="#E8133A"/>
<path d="M23.5 138L46.4497 178.5H0.550327L23.5 138Z" fill="#0C07F7"/>
<rect x="2" width="180" height="104" fill="url(#paint0_linear)"/>
<defs>
<linearGradient id="paint0_linear" x1="92" y1="0" x2="92" y2="104" gradientUnits="userSpaceOnUse">
<stop stop-color="#10F14F"/>
<stop offset="1" stop-color="#C4C4C4" stop-opacity="0"/>
</linearGradient>
</defs>
</svg>

