<svg width="182" height="180" viewBox="0 0 182 180" fill="none" xmlns="http://www.w3.org/2000/svg">
<rect width="182" height="180" fill="#E5E5E5"/>
<rect x="2" width="180" height="180" fill="#1BD4ED"/>
<path d="M65.5 138L88.4497 178.5H42.5503L65.5 138Z" fill="#F707DF"/>
<path d="M157.5 138L180.45 178.5H134.55L157.5 138Z" fill="#F2F707"/>
<path d="M110.5 138L133.45 178.5H87.5503L110.5 138Z" fill="#E8133A"/>
<path d="M23.5 138L46.4497 178.5H0.550327L23.5 138Z" fill="#0C07F7"/>
<rect x="2" width="180" height="180" fill="url(#paint0_linear)"/>
<path d="M43.0649 127.141H44.8594C47.5449 127.141 49.3394 126.677 50.2427 125.749C51.146 124.821 52.1836 123.039 53.3555 120.402C54.5518 117.741 56.0776 114.335 57.9331 110.185C59.813 106.01 62.1812 100.749 65.0376 94.4014C67.894 88.0293 69.957 83.4395 71.2266 80.6318C72.4961 77.8242 73.5947 75.4194 74.5225 73.4175C75.4502 71.3911 76.085 69.9751 76.4268 69.1694C76.7686 68.3638 77.147 67.4849 77.562 66.5327L92.833 29.3623H95.9824C102.037 45.1582 109.691 64.2622 118.944 86.6743C128.197 109.062 133.312 121.171 134.288 123.002C135.265 124.833 136.266 125.981 137.291 126.445C138.341 126.909 139.781 127.141 141.612 127.141H143.846L143.7 133H109.496L109.642 127.141H114.146C116.637 127.141 118.358 127.043 119.31 126.848C120.262 126.628 120.738 126.127 120.738 125.346C120.738 124.785 120.506 123.942 120.042 122.819C119.603 121.672 119.334 120.964 119.237 120.695L108.141 93.4126H73.3506L61.4854 119.816C60.4844 122.258 59.9839 123.955 59.9839 124.907C59.9839 125.859 60.3623 126.469 61.1191 126.738C61.9004 127.006 63.5728 127.141 66.1362 127.141H72.2886V133H43.2114L43.0649 127.141ZM76.207 86.7842H105.614L91.3682 51.2617L76.207 86.7842Z" fill="black"/>
<defs>
<linearGradient id="paint0_linear" x1="92" y1="0" x2="92" y2="180" gradientUnits="userSpaceOnUse">
<stop stop-color="#10F14F"/>
<stop offset="1" stop-color="#C4C4C4" stop-opacity="0"/>
</linearGradient>
</defs>
</svg>
